<?xml version="1.0" encoding="UTF-8" standalone="no"?>
<!-- Created with Inkscape (http://www.inkscape.org/) -->

<svg
   width="91.143456mm"
   height="22.631399mm"
   viewBox="0 0 91.143456 22.631399"
   version="1.1"
   id="svg5"
   inkscape:export-filename="/home/lombardo/Documents/Software/WebDev/shortify/README/images/logo.svg"
   inkscape:export-xdpi="96"
   inkscape:export-ydpi="96"
   inkscape:version="1.1 (c4e8f9ed74, 2021-05-24)"
   sodipodi:docname="logo.svg"
   xmlns:inkscape="http://www.inkscape.org/namespaces/inkscape"
   xmlns:sodipodi="http://sodipodi.sourceforge.net/DTD/sodipodi-0.dtd"
   xmlns="http://www.w3.org/2000/svg"
   xmlns:svg="http://www.w3.org/2000/svg">
  <sodipodi:namedview
     id="namedview7"
     pagecolor="#ffffff"
     bordercolor="#666666"
     borderopacity="1.0"
     inkscape:pageshadow="2"
     inkscape:pageopacity="0.0"
     inkscape:pagecheckerboard="0"
     inkscape:document-units="mm"
     showgrid="false"
     fit-margin-top="0"
     fit-margin-left="0"
     fit-margin-right="0"
     fit-margin-bottom="0"
     inkscape:zoom="2.1795515"
     inkscape:cx="133.74311"
     inkscape:cy="-57.580654"
     inkscape:window-width="1920"
     inkscape:window-height="1080"
     inkscape:window-x="0"
     inkscape:window-y="0"
     inkscape:window-maximized="1"
     inkscape:current-layer="layer1" />
  <defs
     id="defs2" />
  <g
     inkscape:label="Layer 1"
     inkscape:groupmode="layer"
     id="layer1"
     transform="translate(-6.4436997,-9.3469638)">
    <g
       aria-label="shortify"
       id="text20677"
       style="font-size:25.4px;line-height:1.25;stroke-width:0.264583"
       inkscape:export-filename="/home/lombardo/Documents/Software/WebDev/shortify/README/images/text20677.svg"
       inkscape:export-xdpi="96"
       inkscape:export-ydpi="96">
      <path
         d="m 6.6553664,25.348963 c 1.016,0.8128 2.5907999,1.7526 4.5973996,1.778 1.2192,0 2.2352,-0.3556 3.0988,-0.9906 0.8382,-0.635 1.4224,-1.4732 1.4224,-2.5146 0,-1.0414 -0.5842,-2.0066 -1.397,-2.54 -0.8636,-0.4826 -1.8288,-0.8382 -3.0226,-1.016 h -0.0508 c -1.143,-0.1778 -1.9811997,-0.4826 -2.5399996,-0.8636 -0.4826,-0.381 -0.7112,-0.7366 -0.7112,-1.2446 0,-0.508 0.2794,-1.016 0.7873999,-1.4224 0.5334,-0.4318 1.3461997,-0.7112 2.3621997,-0.7112 1.2192,0 2.1336,0.635 3.048,1.2446 0.2794,0.1778 0.6604,0.1016 0.8382,-0.1778 0.1778,-0.2794 0.1016,-0.6604 -0.1778,-0.8636 -0.9652,-0.6096 -2.1082,-1.3462 -3.7084,-1.3462 -1.2699997,0 -2.3113997,0.3302 -3.0479996,0.8382 -0.7874,0.5842 -1.3462,1.4478 -1.3462,2.4384 0,0.9652 0.5588,1.778 1.3462,2.2352 0.7111999,0.508 1.7017999,0.762 2.8193996,0.9652 l 0.0508,0.0254 c 1.2192,0.2032 2.1082,0.508 2.6416,0.9144 0.635,0.5334 0.8636,0.9398 0.889,1.524 0,0.5588 -0.3302,1.1176 -0.9398,1.524 -0.5588,0.4572 -1.397,0.762 -2.3622,0.762 -1.5747997,0 -2.9463996,-0.8128 -3.8099996,-1.4478 -0.2794,-0.2286 -0.6604,-0.1778 -0.8636,0.0762 -0.2032,0.254 -0.1778,0.5842 0.0762,0.8128 z"
         style="font-family:Quicksand;-inkscape-font-specification:Quicksand"
         id="path40851" />
      <path
         d="m 29.083532,26.517363 c 0,0.3302 0.2794,0.6096 0.6096,0.6096 0.3556,0 0.635,-0.2794 0.635,-0.6096 v -6.9342 c 0,-2.8702 -2.3368,-4.9022 -5.207,-4.9022 -1.5748,0 -2.9972,0.7112 -3.937,1.8288 V 9.9565629 c 0,-0.3302 -0.2794,-0.6096 -0.635,-0.6096 -0.3302,0 -0.6096,0.2794 -0.6096,0.6096 v 9.4234001 0.2032 6.9342 c 0,0.0762 0,0.127 0.0254,0.2032 0.0254,0.0762 0.0508,0.127 0.1016,0.2032 0.127,0.127 0.3048,0.2032 0.4826,0.2032 h 0.0762 0.0508 c 0.0254,0 0.0508,-0.0254 0.0508,-0.0254 0.1778,-0.0508 0.3048,-0.1524 0.381,-0.3048 0.0254,-0.0254 0.0254,-0.0508 0.0508,-0.1016 0,-0.0254 0.0254,-0.0508 0.0254,-0.1016 v -0.0762 -6.9342 c 0,-2.1844 1.778,-3.6576 3.937,-3.6576 2.1844,0 3.9624,1.4732 3.9624,3.6576 z"
         style="font-family:Quicksand;-inkscape-font-specification:Quicksand"
         id="path40853" />
      <path
         d="m 34.925507,20.903963 c 0,3.3782 2.6416,6.223 5.8928,6.223 3.2766,0 5.8928,-2.8448 5.8928,-6.223 0,-3.3782 -2.6162,-6.223 -5.8928,-6.223 -3.2512,0 -5.8928,2.8448 -5.8928,6.223 z m 1.2192,0 c 0,-2.7686 2.1336,-5.0292 4.6736,-5.0292 2.54,0 4.6736,2.2606 4.6736,5.0292 0,2.7686 -2.1336,5.0038 -4.6736,5.0038 -2.54,0 -4.6736,-2.2352 -4.6736,-5.0038 z"
         style="font-family:Quicksand;-inkscape-font-specification:Quicksand"
         id="path40855" />
      <path
         d="m 50.876646,26.517363 c 0,0.3556 0.2794,0.6096 0.635,0.6096 0.3048,0 0.5842,-0.254 0.5842,-0.6096 v -5.461 c 0,-0.0508 0,-0.1016 0.0508,-0.2032 0.1778,-0.508 0.6604,-1.778 1.4986,-2.8956 0.8636,-1.1176 1.9812,-2.032 3.6068,-2.032 0.3302,0 0.6096,-0.2794 0.6096,-0.6096 0,-0.3556 -0.2794,-0.6096 -0.6096,-0.6096 -2.3876,0 -4.0386,1.5748 -4.9784,3.048 -0.0762,0.1016 -0.127,0.2032 -0.1778,0.3048 v -2.7432 c 0,-0.3556 -0.2794,-0.6096 -0.5842,-0.6096 -0.3556,0 -0.635,0.254 -0.635,0.6096 z"
         style="font-family:Quicksand;-inkscape-font-specification:Quicksand"
         id="path40857" />
      <path
         d="m 65.761024,14.680963 h -1.6002 v -4.6228 c 0,-0.3048001 -0.3302,-0.6096001 -0.6604,-0.6096001 -0.3048,0 -0.6096,0.3048 -0.6096,0.6096001 v 4.6228 h -1.5494 c -0.6096,0 -0.6096,0.3048 -0.6096,0.6096 0,0.3048 0,0.6096 0.6096,0.6096 h 1.5494 v 9.0678 c 0,1.2446 0.9398,2.159 2.1844,2.159 0.3048,0 0.635,-0.3048 0.635,-0.6096 0,-0.3048 -0.3302,-0.635 -0.635,-0.635 -0.3048,0 -0.9144,-0.3048 -0.9144,-0.9144 v -9.0678 h 1.6002 c 0.3048,0 0.6096,-0.3048 0.6096,-0.6096 0,-0.3048 -0.3048,-0.6096 -0.6096,-0.6096 z"
         style="font-family:Quicksand;-inkscape-font-specification:Quicksand"
         id="path40859" />
      <path
         d="m 72.212612,26.517363 c 0,0.3302 0.2794,0.6096 0.6096,0.6096 0.3556,0 0.635,-0.2794 0.635,-0.6096 v -11.2268 c 0,-0.3556 -0.2794,-0.6096 -0.635,-0.6096 -0.3302,0 -0.6096,0.254 -0.6096,0.6096 z m 0,-14.7066 c 0,0.3556 0.2794,0.6604 0.6096,0.6604 0.3556,0 0.635,-0.3048 0.635,-0.6604 v -0.5842 c 0,-0.3302 -0.2794,-0.6096 -0.635,-0.6096 -0.3302,0 -0.6096,0.2794 -0.6096,0.6096 z"
         style="font-family:Quicksand;-inkscape-font-specification:Quicksand"
         id="path40861" />
      <path
         d="m 84.201372,9.3723629 c -0.9906,0 -1.905,0.2286 -2.5146,0.8890001 -0.5842,0.6858 -0.7874,1.6256 -0.8128,2.8956 v 1.3208 h -1.651 c -0.3302,0 -0.6096,0.2794 -0.6096,0.6096 0,0.3556 0.2794,0.635 0.6096,0.635 h 1.651 v 10.8204 c 0,0.3302 0.2794,0.6096 0.635,0.6096 0.3302,0 0.6096,-0.2794 0.6096,-0.6096 v -10.8204 h 1.7526 c 0.3556,0 0.635,-0.2794 0.635,-0.635 0,-0.3302 -0.2794,-0.6096 -0.635,-0.6096 h -1.7526 v -1.3208 c 0,-1.143 0.2286,-1.7526 0.508,-2.0574 0.254,-0.3048 0.7112,-0.4826 1.5748,-0.4826 0.3302,0 0.6096,-0.2794 0.6096,-0.6096 0,-0.3556001 -0.2794,-0.6350001 -0.6096,-0.6350001 z"
         style="font-family:Quicksand;-inkscape-font-specification:Quicksand"
         id="path40863" />
      <path
         d="m 87.477958,22.021563 c 0,2.794 2.2606,5.0546 5.0292,5.08 1.5494,0 2.921,-0.7112 3.8608,-1.778 v 0.8128 c -0.0254,2.5654 -2.1082,4.6228 -4.699,4.6228 -0.7112,0 -1.4224,-0.1778 -2.032,-0.4826 -0.3048,-0.0762 -0.635,0 -0.7874,0.3048 -0.1524,0.2794 -0.0254,0.635 0.254,0.8128 0.7874,0.3556 1.651,0.5842 2.5654,0.5842 3.2766,0 5.9182,-2.5908 5.9182,-5.842 v -3.8862 -0.2286 -6.7564 c 0,-0.0762 -0.0254,-0.1778 -0.0762,-0.254 -0.0254,-0.0762 -0.1016,-0.1524 -0.1524,-0.2032 -0.1016,-0.0508 -0.2032,-0.1016 -0.3048,-0.127 h -0.0762 -0.0762 c -0.0254,0 -0.0508,0.0254 -0.0762,0.0254 h -0.0508 c -0.0762,0.0254 -0.1778,0.0762 -0.2286,0.1524 -0.0254,0 -0.0254,0.0254 -0.0508,0.0254 0,0.0254 -0.0254,0.0508 -0.0254,0.0762 -0.0762,0.0762 -0.1016,0.2032 -0.1016,0.3048 v 6.7564 c -0.0254,2.1336 -1.7272,3.8354 -3.8608,3.8354 -2.1082,0 -3.81,-1.7018 -3.81,-3.8354 v -6.7564 c 0,-0.3302 -0.2794,-0.5842 -0.635,-0.5842 -0.3048,0 -0.5842,0.254 -0.5842,0.5842 z"
         style="font-family:Quicksand;-inkscape-font-specification:Quicksand"
         id="path40865" />
    </g>
  </g>
</svg>
